# xmcd
# 
# Track frame offsets:
#     150
#     33512
#     54855
#     77255
#     99587
#     115187
#     138502
#     162012
#     190700
#     214945
#     239730
#     271645
#     300727
# 
# Disc length: 4435
# 
# Revision: 1
# Processed by: cddbd v1.5.2PL0 Copyright (c) Steve Scherf et al.
# Submitted via: fre:ac v1.0.17
# 
DISCID=a411510d
DTITLE=Various Artist - Revelation
DYEAR=2001
DGENRE=Beat
TTITLE0=Bent - Always
TTITLE1=Saint and Coker - Deserted
TTITLE2=Reset - Runaway (Del 5 Club)
TTITLE3=Plato - Nothing From This
TTITLE4=Ubu - Pixels
TTITLE5=Indaba - Dark Light
TTITLE6=Nebulus - Blueless
TTITLE7=Southern Comforter - Another Late Thursday
TTITLE8=Groove Juice feat. Yamil Thian - Back To Africa
TTITLE9=Soul Providers - Rise
TTITLE10=Lexicon Avenue - From Dusk Til Dawn
TTITLE11=Sharpside - Belgian Resistance
TTITLE12=Mother's Pride - Nightflight
EXTD=
EXTT0=
EXTT1=
EXTT2=
EXTT3=
EXTT4=
EXTT5=
EXTT6=
EXTT7=
EXTT8=
EXTT9=
EXTT10=
EXTT11=
EXTT12=
PLAYORDER=
